<svg width="194" height="62" viewBox="0 0 194 62" fill="none" xmlns="http://www.w3.org/2000/svg">
<g filter="url(#filter0_di_2_101)">
<mask id="path-1-inside-1_2_101" fill="white">
<path d="M4 5C4 2.23858 6.23858 0 9 0H185C187.761 0 190 2.23858 190 5V53C190 53.5523 189.552 54 189 54H5C4.44771 54 4 53.5523 4 53V5Z"/>
</mask>
<path d="M4 5C4 2.23858 6.23858 0 9 0H185C187.761 0 190 2.23858 190 5V53C190 53.5523 189.552 54 189 54H5C4.44771 54 4 53.5523 4 53V5Z" fill="#3D3C68"/>
<path d="M4 5C4 2.23858 6.23858 0 9 0H185C187.761 0 190 2.23858 190 5V53C190 53.5523 189.552 54 189 54H5C4.44771 54 4 53.5523 4 53V5Z" stroke="#222222" stroke-width="4" mask="url(#path-1-inside-1_2_101)"/>
</g>
<g filter="url(#filter1_i_2_101)">
<path d="M5.58301 4C5.58301 1.79087 7.37387 0 9.58301 0H186C188.209 0 190 1.79086 190 4V11.1224C190 11.6747 189.552 12.1224 189 12.1224H6.583C6.03072 12.1224 5.58301 11.6747 5.58301 11.1224V4Z" fill="url(#paint0_linear_2_101)"/>
</g>
<g filter="url(#filter2_i_2_101)">
<path d="M165.738 3.76747C165.286 3.10366 165.761 2.2041 166.565 2.2041H186.625C187.178 2.2041 187.625 2.65182 187.625 3.2041V10.0204C187.625 10.5727 187.178 11.0204 186.625 11.0204H171.212C170.882 11.0204 170.572 10.857 170.386 10.5838L165.738 3.76747Z" fill="#515580"/>
</g>
<path d="M166.151 3.48578C165.925 3.15388 166.163 2.7041 166.565 2.7041H186.625C186.902 2.7041 187.125 2.92796 187.125 3.2041V10.0204C187.125 10.2966 186.902 10.5204 186.625 10.5204H171.212C171.047 10.5204 170.892 10.4387 170.799 10.3021L166.151 3.48578Z" stroke="black" stroke-opacity="0.47"/>
<g clip-path="url(#clip0_2_101)">
<path d="M174.838 4.65649C174.838 4.65649 174.614 4.8481 174.593 4.90614C174.578 4.94672 174.647 5.00476 174.709 5.06168C174.771 5.1186 176.969 7.18061 176.969 7.18061C176.969 7.18061 178.393 6.43222 177.681 6.1527C176.969 5.87318 174.838 4.65649 174.838 4.65649ZM175.989 10.1308C175.989 10.1308 176.101 10.235 176.17 10.288C176.286 10.377 176.394 10.2328 176.503 10.1437C176.613 10.0547 178.373 8.44632 178.373 8.44632C178.373 8.44632 180.153 10.1054 180.242 10.1753C180.331 10.2452 180.441 10.2159 180.489 10.1781C180.538 10.1398 180.805 9.89181 180.805 9.89181L178.846 7.87264L177.21 8.18371L175.989 10.1308ZM179.297 6.35614L179.543 7.28261L179.803 7.00985C179.803 7.00985 181.885 5.06844 181.946 5.01773C182.008 4.96701 182.038 4.87909 181.99 4.82218C181.942 4.76526 181.89 4.71792 181.89 4.71792L179.297 6.35614Z" fill="#45404E"/>
<path d="M176.975 6.80021C176.975 6.83177 174.88 8.75401 174.805 8.83009C174.73 8.90617 174.736 8.97605 174.826 9.07129C174.915 9.16653 175.954 10.0992 175.99 10.1307C176.031 10.1668 176.154 10.1116 176.244 10.0355C176.332 9.95943 178.325 8.13242 178.38 8.13242C178.435 8.13242 180.291 9.858 180.4 9.93407C180.51 10.0102 180.646 10.004 180.729 9.95323C180.811 9.90251 181.687 9.09665 181.749 9.03353C181.81 8.96985 181.755 8.88137 181.653 8.77317C181.55 8.66554 179.66 6.83853 179.66 6.83853L181.892 4.7196C181.892 4.7196 180.783 3.73622 180.715 3.6793C180.646 3.62238 180.523 3.5649 180.379 3.69226C180.235 3.81963 178.331 5.60155 178.331 5.60155C178.331 5.60155 176.304 3.64098 176.236 3.58406C176.168 3.52715 176.079 3.55251 176.003 3.60942C175.928 3.66634 174.853 4.63676 174.812 4.68128C174.77 4.7258 174.853 4.79568 174.969 4.90952C175.085 5.02335 176.975 6.80021 176.975 6.80021Z" fill="#C0C7F1"/>
<path d="M176.087 3.93958C175.94 3.93 175.275 4.45241 175.444 4.60175C175.588 4.72854 175.835 4.44621 176.075 4.45184C176.315 4.45748 176.622 4.61133 176.727 4.47439C176.854 4.30701 176.266 3.95085 176.087 3.93958ZM180.589 4.00777C180.373 4.0382 180.055 4.32899 179.767 4.60006C179.479 4.87112 179.277 5.0971 179.36 5.19516C179.468 5.32083 179.789 4.98721 179.989 4.82491C180.189 4.66261 180.49 4.45579 180.7 4.44846C180.914 4.44114 181.125 4.5268 181.169 4.4231C181.212 4.31941 180.879 3.96663 180.589 4.00777ZM176.12 8.11657C176.048 8.06078 175.773 8.15263 175.481 8.50936C175.188 8.86608 175.277 9.03402 175.388 9.1642C175.52 9.31748 175.658 9.40877 175.739 9.2769C175.798 9.18223 175.754 8.99682 175.832 8.79395C175.91 8.59051 176.061 8.36509 176.105 8.29747C176.149 8.22984 176.183 8.16616 176.12 8.11657Z" fill="#9886D8"/>
</g>
<path d="M129.837 2.84119C129.837 2.95358 129.799 3.06344 129.729 3.15689C129.658 3.25033 129.559 3.32317 129.442 3.36617C129.325 3.40918 129.196 3.42044 129.072 3.39851C128.948 3.37658 128.834 3.32247 128.745 3.243C128.656 3.16353 128.595 3.06228 128.57 2.95205C128.545 2.84182 128.558 2.72757 128.606 2.62373C128.655 2.5199 128.737 2.43115 128.842 2.36872C128.947 2.30628 129.071 2.27295 129.197 2.27295C129.367 2.27295 129.529 2.33282 129.649 2.43938C129.769 2.54595 129.837 2.69048 129.837 2.84119ZM132.82 2.27295C132.694 2.27295 132.57 2.30628 132.465 2.36872C132.36 2.43115 132.278 2.5199 132.23 2.62373C132.181 2.72757 132.169 2.84182 132.193 2.95205C132.218 3.06228 132.279 3.16353 132.368 3.243C132.458 3.32247 132.572 3.37658 132.696 3.39851C132.82 3.42044 132.948 3.40918 133.065 3.36617C133.182 3.32317 133.282 3.25033 133.352 3.15689C133.422 3.06344 133.46 2.95358 133.46 2.84119C133.46 2.69048 133.393 2.54595 133.273 2.43938C133.153 2.33282 132.99 2.27295 132.82 2.27295ZM136.444 3.40943C136.57 3.40943 136.694 3.3761 136.799 3.31366C136.904 3.25122 136.986 3.16248 137.035 3.05865C137.083 2.95481 137.096 2.84056 137.071 2.73033C137.046 2.6201 136.985 2.51885 136.896 2.43938C136.807 2.35991 136.693 2.30579 136.569 2.28387C136.445 2.26194 136.316 2.2732 136.199 2.3162C136.082 2.35921 135.982 2.43205 135.912 2.52549C135.842 2.61894 135.804 2.7288 135.804 2.84119C135.804 2.9919 135.872 3.13643 135.992 3.243C136.112 3.34956 136.274 3.40943 136.444 3.40943ZM129.197 5.49297C129.071 5.49297 128.947 5.5263 128.842 5.58874C128.737 5.65118 128.655 5.73993 128.606 5.84376C128.558 5.94759 128.545 6.06185 128.57 6.17207C128.595 6.2823 128.656 6.38355 128.745 6.46302C128.834 6.54249 128.948 6.59661 129.072 6.61854C129.196 6.64046 129.325 6.62921 129.442 6.5862C129.559 6.54319 129.658 6.47036 129.729 6.37691C129.799 6.28347 129.837 6.1736 129.837 6.06121C129.837 5.91051 129.769 5.76597 129.649 5.65941C129.529 5.55284 129.367 5.49297 129.197 5.49297ZM132.82 5.49297C132.694 5.49297 132.57 5.5263 132.465 5.58874C132.36 5.65118 132.278 5.73993 132.23 5.84376C132.181 5.94759 132.169 6.06185 132.193 6.17207C132.218 6.2823 132.279 6.38355 132.368 6.46302C132.458 6.54249 132.572 6.59661 132.696 6.61854C132.82 6.64046 132.948 6.62921 133.065 6.5862C133.182 6.54319 133.282 6.47036 133.352 6.37691C133.422 6.28347 133.46 6.1736 133.46 6.06121C133.46 5.91051 133.393 5.76597 133.273 5.65941C133.153 5.55284 132.99 5.49297 132.82 5.49297ZM136.444 5.49297C136.317 5.49297 136.194 5.5263 136.089 5.58874C135.983 5.65118 135.902 5.73993 135.853 5.84376C135.805 5.94759 135.792 6.06185 135.817 6.17207C135.841 6.2823 135.902 6.38355 135.992 6.46302C136.081 6.54249 136.195 6.59661 136.319 6.61854C136.443 6.64046 136.572 6.62921 136.689 6.5862C136.805 6.54319 136.905 6.47036 136.976 6.37691C137.046 6.28347 137.083 6.1736 137.083 6.06121C137.083 5.91051 137.016 5.76597 136.896 5.65941C136.776 5.55284 136.613 5.49297 136.444 5.49297ZM129.197 8.713C129.071 8.713 128.947 8.74633 128.842 8.80877C128.737 8.87121 128.655 8.95995 128.606 9.06378C128.558 9.16762 128.545 9.28187 128.57 9.3921C128.595 9.50233 128.656 9.60358 128.745 9.68305C128.834 9.76252 128.948 9.81664 129.072 9.83856C129.196 9.86049 129.325 9.84923 129.442 9.80622C129.559 9.76322 129.658 9.69038 129.729 9.59694C129.799 9.50349 129.837 9.39363 129.837 9.28124C129.837 9.13053 129.769 8.986 129.649 8.87943C129.529 8.77287 129.367 8.713 129.197 8.713ZM132.82 8.713C132.694 8.713 132.57 8.74633 132.465 8.80877C132.36 8.87121 132.278 8.95995 132.23 9.06378C132.181 9.16762 132.169 9.28187 132.193 9.3921C132.218 9.50233 132.279 9.60358 132.368 9.68305C132.458 9.76252 132.572 9.81664 132.696 9.83856C132.82 9.86049 132.948 9.84923 133.065 9.80622C133.182 9.76322 133.282 9.69038 133.352 9.59694C133.422 9.50349 133.46 9.39363 133.46 9.28124C133.46 9.13053 133.393 8.986 133.273 8.87943C133.153 8.77287 132.99 8.713 132.82 8.713ZM136.444 8.713C136.317 8.713 136.194 8.74633 136.089 8.80877C135.983 8.87121 135.902 8.95995 135.853 9.06378C135.805 9.16762 135.792 9.28187 135.817 9.3921C135.841 9.50233 135.902 9.60358 135.992 9.68305C136.081 9.76252 136.195 9.81664 136.319 9.83856C136.443 9.86049 136.572 9.84923 136.689 9.80622C136.805 9.76322 136.905 9.69038 136.976 9.59694C137.046 9.50349 137.083 9.39363 137.083 9.28124C137.083 9.13053 137.016 8.986 136.896 8.87943C136.776 8.77287 136.613 8.713 136.444 8.713Z" fill="#9BA7E9"/>
<path d="M140.92 2.84119C140.92 2.95358 140.882 3.06344 140.812 3.15689C140.742 3.25033 140.642 3.32317 140.525 3.36617C140.408 3.40918 140.28 3.42044 140.156 3.39851C140.032 3.37658 139.918 3.32247 139.828 3.243C139.739 3.16353 139.678 3.06228 139.653 2.95205C139.629 2.84182 139.641 2.72757 139.69 2.62373C139.738 2.5199 139.82 2.43115 139.925 2.36872C140.03 2.30628 140.154 2.27295 140.28 2.27295C140.45 2.27295 140.613 2.33282 140.733 2.43938C140.852 2.54595 140.92 2.69048 140.92 2.84119ZM143.904 2.27295C143.777 2.27295 143.654 2.30628 143.549 2.36872C143.443 2.43115 143.361 2.5199 143.313 2.62373C143.265 2.72757 143.252 2.84182 143.277 2.95205C143.301 3.06228 143.362 3.16353 143.452 3.243C143.541 3.32247 143.655 3.37658 143.779 3.39851C143.903 3.42044 144.032 3.40918 144.148 3.36617C144.265 3.32317 144.365 3.25033 144.435 3.15689C144.506 3.06344 144.543 2.95358 144.543 2.84119C144.543 2.69048 144.476 2.54595 144.356 2.43938C144.236 2.33282 144.073 2.27295 143.904 2.27295ZM147.527 3.40943C147.654 3.40943 147.777 3.3761 147.882 3.31366C147.988 3.25122 148.07 3.16248 148.118 3.05865C148.166 2.95481 148.179 2.84056 148.154 2.73033C148.13 2.6201 148.069 2.51885 147.979 2.43938C147.89 2.35991 147.776 2.30579 147.652 2.28387C147.528 2.26194 147.399 2.2732 147.282 2.3162C147.166 2.35921 147.066 2.43205 146.996 2.52549C146.925 2.61894 146.888 2.7288 146.888 2.84119C146.888 2.9919 146.955 3.13643 147.075 3.243C147.195 3.34956 147.358 3.40943 147.527 3.40943ZM140.28 5.49297C140.154 5.49297 140.03 5.5263 139.925 5.58874C139.82 5.65118 139.738 5.73993 139.69 5.84376C139.641 5.94759 139.629 6.06185 139.653 6.17207C139.678 6.2823 139.739 6.38355 139.828 6.46302C139.918 6.54249 140.032 6.59661 140.156 6.61854C140.28 6.64046 140.408 6.62921 140.525 6.5862C140.642 6.54319 140.742 6.47036 140.812 6.37691C140.882 6.28347 140.92 6.1736 140.92 6.06121C140.92 5.91051 140.852 5.76597 140.733 5.65941C140.613 5.55284 140.45 5.49297 140.28 5.49297ZM143.904 5.49297C143.777 5.49297 143.654 5.5263 143.549 5.58874C143.443 5.65118 143.361 5.73993 143.313 5.84376C143.265 5.94759 143.252 6.06185 143.277 6.17207C143.301 6.2823 143.362 6.38355 143.452 6.46302C143.541 6.54249 143.655 6.59661 143.779 6.61854C143.903 6.64046 144.032 6.62921 144.148 6.5862C144.265 6.54319 144.365 6.47036 144.435 6.37691C144.506 6.28347 144.543 6.1736 144.543 6.06121C144.543 5.91051 144.476 5.76597 144.356 5.65941C144.236 5.55284 144.073 5.49297 143.904 5.49297ZM147.527 5.49297C147.401 5.49297 147.277 5.5263 147.172 5.58874C147.067 5.65118 146.985 5.73993 146.936 5.84376C146.888 5.94759 146.875 6.06185 146.9 6.17207C146.925 6.2823 146.986 6.38355 147.075 6.46302C147.164 6.54249 147.278 6.59661 147.402 6.61854C147.526 6.64046 147.655 6.62921 147.772 6.5862C147.889 6.54319 147.989 6.47036 148.059 6.37691C148.129 6.28347 148.167 6.1736 148.167 6.06121C148.167 5.91051 148.099 5.76597 147.979 5.65941C147.859 5.55284 147.697 5.49297 147.527 5.49297ZM140.28 8.713C140.154 8.713 140.03 8.74633 139.925 8.80877C139.82 8.87121 139.738 8.95995 139.69 9.06378C139.641 9.16762 139.629 9.28187 139.653 9.3921C139.678 9.50233 139.739 9.60358 139.828 9.68305C139.918 9.76252 140.032 9.81664 140.156 9.83856C140.28 9.86049 140.408 9.84923 140.525 9.80622C140.642 9.76322 140.742 9.69038 140.812 9.59694C140.882 9.50349 140.92 9.39363 140.92 9.28124C140.92 9.13053 140.852 8.986 140.733 8.87943C140.613 8.77287 140.45 8.713 140.28 8.713ZM143.904 8.713C143.777 8.713 143.654 8.74633 143.549 8.80877C143.443 8.87121 143.361 8.95995 143.313 9.06378C143.265 9.16762 143.252 9.28187 143.277 9.3921C143.301 9.50233 143.362 9.60358 143.452 9.68305C143.541 9.76252 143.655 9.81664 143.779 9.83856C143.903 9.86049 144.032 9.84923 144.148 9.80622C144.265 9.76322 144.365 9.69038 144.435 9.59694C144.506 9.50349 144.543 9.39363 144.543 9.28124C144.543 9.13053 144.476 8.986 144.356 8.87943C144.236 8.77287 144.073 8.713 143.904 8.713ZM147.527 8.713C147.401 8.713 147.277 8.74633 147.172 8.80877C147.067 8.87121 146.985 8.95995 146.936 9.06378C146.888 9.16762 146.875 9.28187 146.9 9.3921C146.925 9.50233 146.986 9.60358 147.075 9.68305C147.164 9.76252 147.278 9.81664 147.402 9.83856C147.526 9.86049 147.655 9.84923 147.772 9.80622C147.889 9.76322 147.989 9.69038 148.059 9.59694C148.129 9.50349 148.167 9.39363 148.167 9.28124C148.167 9.13053 148.099 8.986 147.979 8.87943C147.859 8.77287 147.697 8.713 147.527 8.713Z" fill="#9BA7E9"/>
<path d="M42.6494 2.84119C42.6494 2.95358 42.6119 3.06344 42.5416 3.15689C42.4714 3.25033 42.3715 3.32317 42.2547 3.36617C42.1378 3.40918 42.0093 3.42044 41.8852 3.39851C41.7612 3.37658 41.6473 3.32247 41.5578 3.243C41.4684 3.16353 41.4075 3.06228 41.3828 2.95205C41.3582 2.84182 41.3708 2.72757 41.4192 2.62373C41.4676 2.5199 41.5496 2.43115 41.6547 2.36872C41.7599 2.30628 41.8835 2.27295 42.01 2.27295C42.1795 2.27295 42.3422 2.33282 42.4621 2.43938C42.582 2.54595 42.6494 2.69048 42.6494 2.84119ZM45.6333 2.27295C45.5069 2.27295 45.3833 2.30628 45.2781 2.36872C45.1729 2.43115 45.091 2.5199 45.0426 2.62373C44.9942 2.72757 44.9815 2.84182 45.0062 2.95205C45.0309 3.06228 45.0918 3.16353 45.1812 3.243C45.2706 3.32247 45.3846 3.37658 45.5086 3.39851C45.6326 3.42044 45.7612 3.40918 45.878 3.36617C45.9949 3.32317 46.0947 3.25033 46.165 3.15689C46.2353 3.06344 46.2728 2.95358 46.2728 2.84119C46.2728 2.69048 46.2054 2.54595 46.0855 2.43938C45.9656 2.33282 45.8029 2.27295 45.6333 2.27295ZM49.2567 3.40943C49.3832 3.40943 49.5068 3.3761 49.612 3.31366C49.7171 3.25122 49.7991 3.16248 49.8475 3.05865C49.8959 2.95481 49.9085 2.84056 49.8839 2.73033C49.8592 2.6201 49.7983 2.51885 49.7089 2.43938C49.6194 2.35991 49.5055 2.30579 49.3815 2.28387C49.2574 2.26194 49.1289 2.2732 49.012 2.3162C48.8952 2.35921 48.7953 2.43205 48.7251 2.52549C48.6548 2.61894 48.6173 2.7288 48.6173 2.84119C48.6173 2.9919 48.6847 3.13643 48.8046 3.243C48.9245 3.34956 49.0871 3.40943 49.2567 3.40943ZM42.01 5.49297C41.8835 5.49297 41.7599 5.5263 41.6547 5.58874C41.5496 5.65118 41.4676 5.73993 41.4192 5.84376C41.3708 5.94759 41.3582 6.06185 41.3828 6.17207C41.4075 6.2823 41.4684 6.38355 41.5578 6.46302C41.6473 6.54249 41.7612 6.59661 41.8852 6.61854C42.0093 6.64046 42.1378 6.62921 42.2547 6.5862C42.3715 6.54319 42.4714 6.47036 42.5416 6.37691C42.6119 6.28347 42.6494 6.1736 42.6494 6.06121C42.6494 5.91051 42.582 5.76597 42.4621 5.65941C42.3422 5.55284 42.1795 5.49297 42.01 5.49297ZM45.6333 5.49297C45.5069 5.49297 45.3833 5.5263 45.2781 5.58874C45.1729 5.65118 45.091 5.73993 45.0426 5.84376C44.9942 5.94759 44.9815 6.06185 45.0062 6.17207C45.0309 6.2823 45.0918 6.38355 45.1812 6.46302C45.2706 6.54249 45.3846 6.59661 45.5086 6.61854C45.6326 6.64046 45.7612 6.62921 45.878 6.5862C45.9949 6.54319 46.0947 6.47036 46.165 6.37691C46.2353 6.28347 46.2728 6.1736 46.2728 6.06121C46.2728 5.91051 46.2054 5.76597 46.0855 5.65941C45.9656 5.55284 45.8029 5.49297 45.6333 5.49297ZM49.2567 5.49297C49.1303 5.49297 49.0066 5.5263 48.9015 5.58874C48.7963 5.65118 48.7144 5.73993 48.666 5.84376C48.6176 5.94759 48.6049 6.06185 48.6296 6.17207C48.6543 6.2823 48.7152 6.38355 48.8046 6.46302C48.894 6.54249 49.0079 6.59661 49.132 6.61854C49.256 6.64046 49.3846 6.62921 49.5014 6.5862C49.6183 6.54319 49.7181 6.47036 49.7884 6.37691C49.8586 6.28347 49.8961 6.1736 49.8961 6.06121C49.8961 5.91051 49.8288 5.76597 49.7089 5.65941C49.5889 5.55284 49.4263 5.49297 49.2567 5.49297ZM42.01 8.713C41.8835 8.713 41.7599 8.74633 41.6547 8.80877C41.5496 8.87121 41.4676 8.95995 41.4192 9.06378C41.3708 9.16762 41.3582 9.28187 41.3828 9.3921C41.4075 9.50233 41.4684 9.60358 41.5578 9.68305C41.6473 9.76252 41.7612 9.81664 41.8852 9.83856C42.0093 9.86049 42.1378 9.84923 42.2547 9.80622C42.3715 9.76322 42.4714 9.69038 42.5416 9.59694C42.6119 9.50349 42.6494 9.39363 42.6494 9.28124C42.6494 9.13053 42.582 8.986 42.4621 8.87943C42.3422 8.77287 42.1795 8.713 42.01 8.713ZM45.6333 8.713C45.5069 8.713 45.3833 8.74633 45.2781 8.80877C45.1729 8.87121 45.091 8.95995 45.0426 9.06378C44.9942 9.16762 44.9815 9.28187 45.0062 9.3921C45.0309 9.50233 45.0918 9.60358 45.1812 9.68305C45.2706 9.76252 45.3846 9.81664 45.5086 9.83856C45.6326 9.86049 45.7612 9.84923 45.878 9.80622C45.9949 9.76322 46.0947 9.69038 46.165 9.59694C46.2353 9.50349 46.2728 9.39363 46.2728 9.28124C46.2728 9.13053 46.2054 8.986 46.0855 8.87943C45.9656 8.77287 45.8029 8.713 45.6333 8.713ZM49.2567 8.713C49.1303 8.713 49.0066 8.74633 48.9015 8.80877C48.7963 8.87121 48.7144 8.95995 48.666 9.06378C48.6176 9.16762 48.6049 9.28187 48.6296 9.3921C48.6543 9.50233 48.7152 9.60358 48.8046 9.68305C48.894 9.76252 49.0079 9.81664 49.132 9.83856C49.256 9.86049 49.3846 9.84923 49.5014 9.80622C49.6183 9.76322 49.7181 9.69038 49.7884 9.59694C49.8586 9.50349 49.8961 9.39363 49.8961 9.28124C49.8961 9.13053 49.8288 8.986 49.7089 8.87943C49.5889 8.77287 49.4263 8.713 49.2567 8.713Z" fill="#9BA7E9"/>
<path d="M53.7327 2.84119C53.7327 2.95358 53.6952 3.06344 53.6249 3.15689C53.5547 3.25033 53.4548 3.32317 53.338 3.36617C53.2211 3.40918 53.0926 3.42044 52.9685 3.39851C52.8445 3.37658 52.7306 3.32247 52.6411 3.243C52.5517 3.16353 52.4908 3.06228 52.4661 2.95205C52.4415 2.84182 52.4541 2.72757 52.5025 2.62373C52.5509 2.5199 52.6329 2.43115 52.738 2.36872C52.8432 2.30628 52.9668 2.27295 53.0933 2.27295C53.2629 2.27295 53.4255 2.33282 53.5454 2.43938C53.6653 2.54595 53.7327 2.69048 53.7327 2.84119ZM56.7167 2.27295C56.5902 2.27295 56.4666 2.30628 56.3614 2.36872C56.2563 2.43115 56.1743 2.5199 56.1259 2.62373C56.0775 2.72757 56.0648 2.84182 56.0895 2.95205C56.1142 3.06228 56.1751 3.16353 56.2645 3.243C56.3539 3.32247 56.4679 3.37658 56.5919 3.39851C56.7159 3.42044 56.8445 3.40918 56.9613 3.36617C57.0782 3.32317 57.1781 3.25033 57.2483 3.15689C57.3186 3.06344 57.3561 2.95358 57.3561 2.84119C57.3561 2.69048 57.2887 2.54595 57.1688 2.43938C57.0489 2.33282 56.8862 2.27295 56.7167 2.27295ZM60.34 3.40943C60.4665 3.40943 60.5901 3.3761 60.6953 3.31366C60.8004 3.25122 60.8824 3.16248 60.9308 3.05865C60.9792 2.95481 60.9918 2.84056 60.9672 2.73033C60.9425 2.6201 60.8816 2.51885 60.7922 2.43938C60.7027 2.35991 60.5888 2.30579 60.4648 2.28387C60.3407 2.26194 60.2122 2.2732 60.0953 2.3162C59.9785 2.35921 59.8786 2.43205 59.8084 2.52549C59.7381 2.61894 59.7006 2.7288 59.7006 2.84119C59.7006 2.9919 59.768 3.13643 59.8879 3.243C60.0078 3.34956 60.1704 3.40943 60.34 3.40943ZM53.0933 5.49297C52.9668 5.49297 52.8432 5.5263 52.738 5.58874C52.6329 5.65118 52.5509 5.73993 52.5025 5.84376C52.4541 5.94759 52.4415 6.06185 52.4661 6.17207C52.4908 6.2823 52.5517 6.38355 52.6411 6.46302C52.7306 6.54249 52.8445 6.59661 52.9685 6.61854C53.0926 6.64046 53.2211 6.62921 53.338 6.5862C53.4548 6.54319 53.5547 6.47036 53.6249 6.37691C53.6952 6.28347 53.7327 6.1736 53.7327 6.06121C53.7327 5.91051 53.6653 5.76597 53.5454 5.65941C53.4255 5.55284 53.2629 5.49297 53.0933 5.49297ZM56.7167 5.49297C56.5902 5.49297 56.4666 5.5263 56.3614 5.58874C56.2563 5.65118 56.1743 5.73993 56.1259 5.84376C56.0775 5.94759 56.0648 6.06185 56.0895 6.17207C56.1142 6.2823 56.1751 6.38355 56.2645 6.46302C56.3539 6.54249 56.4679 6.59661 56.5919 6.61854C56.7159 6.64046 56.8445 6.62921 56.9613 6.5862C57.0782 6.54319 57.1781 6.47036 57.2483 6.37691C57.3186 6.28347 57.3561 6.1736 57.3561 6.06121C57.3561 5.91051 57.2887 5.76597 57.1688 5.65941C57.0489 5.55284 56.8862 5.49297 56.7167 5.49297ZM60.34 5.49297C60.2136 5.49297 60.0899 5.5263 59.9848 5.58874C59.8796 5.65118 59.7977 5.73993 59.7493 5.84376C59.7009 5.94759 59.6882 6.06185 59.7129 6.17207C59.7376 6.2823 59.7985 6.38355 59.8879 6.46302C59.9773 6.54249 60.0913 6.59661 60.2153 6.61854C60.3393 6.64046 60.4679 6.62921 60.5847 6.5862C60.7016 6.54319 60.8014 6.47036 60.8717 6.37691C60.9419 6.28347 60.9794 6.1736 60.9794 6.06121C60.9794 5.91051 60.9121 5.76597 60.7922 5.65941C60.6723 5.55284 60.5096 5.49297 60.34 5.49297ZM53.0933 8.713C52.9668 8.713 52.8432 8.74633 52.738 8.80877C52.6329 8.87121 52.5509 8.95995 52.5025 9.06378C52.4541 9.16762 52.4415 9.28187 52.4661 9.3921C52.4908 9.50233 52.5517 9.60358 52.6411 9.68305C52.7306 9.76252 52.8445 9.81664 52.9685 9.83856C53.0926 9.86049 53.2211 9.84923 53.338 9.80622C53.4548 9.76322 53.5547 9.69038 53.6249 9.59694C53.6952 9.50349 53.7327 9.39363 53.7327 9.28124C53.7327 9.13053 53.6653 8.986 53.5454 8.87943C53.4255 8.77287 53.2629 8.713 53.0933 8.713ZM56.7167 8.713C56.5902 8.713 56.4666 8.74633 56.3614 8.80877C56.2563 8.87121 56.1743 8.95995 56.1259 9.06378C56.0775 9.16762 56.0648 9.28187 56.0895 9.3921C56.1142 9.50233 56.1751 9.60358 56.2645 9.68305C56.3539 9.76252 56.4679 9.81664 56.5919 9.83856C56.7159 9.86049 56.8445 9.84923 56.9613 9.80622C57.0782 9.76322 57.1781 9.69038 57.2483 9.59694C57.3186 9.50349 57.3561 9.39363 57.3561 9.28124C57.3561 9.13053 57.2887 8.986 57.1688 8.87943C57.0489 8.77287 56.8862 8.713 56.7167 8.713ZM60.34 8.713C60.2136 8.713 60.0899 8.74633 59.9848 8.80877C59.8796 8.87121 59.7977 8.95995 59.7493 9.06378C59.7009 9.16762 59.6882 9.28187 59.7129 9.3921C59.7376 9.50233 59.7985 9.60358 59.8879 9.68305C59.9773 9.76252 60.0913 9.81664 60.2153 9.83856C60.3393 9.86049 60.4679 9.84923 60.5847 9.80622C60.7016 9.76322 60.8014 9.69038 60.8717 9.59694C60.9419 9.50349 60.9794 9.39363 60.9794 9.28124C60.9794 9.13053 60.9121 8.986 60.7922 8.87943C60.6723 8.77287 60.5096 8.713 60.34 8.713Z" fill="#9BA7E9"/>
<path d="M9.82584 2.84119C9.82584 2.95358 9.78834 3.06344 9.71807 3.15689C9.64781 3.25033 9.54795 3.32317 9.43111 3.36617C9.31427 3.40918 9.18571 3.42044 9.06167 3.39851C8.93764 3.37658 8.8237 3.32247 8.73428 3.243C8.64485 3.16353 8.58396 3.06228 8.55928 2.95205C8.53461 2.84182 8.54727 2.72757 8.59567 2.62373C8.64407 2.5199 8.72602 2.43115 8.83117 2.36872C8.93633 2.30628 9.05995 2.27295 9.18642 2.27295C9.356 2.27295 9.51864 2.33282 9.63855 2.43938C9.75847 2.54595 9.82584 2.69048 9.82584 2.84119ZM12.8098 2.27295C12.6833 2.27295 12.5597 2.30628 12.4546 2.36872C12.3494 2.43115 12.2674 2.5199 12.219 2.62373C12.1707 2.72757 12.158 2.84182 12.1827 2.95205C12.2073 3.06228 12.2682 3.16353 12.3577 3.243C12.4471 3.32247 12.561 3.37658 12.685 3.39851C12.8091 3.42044 12.9376 3.40918 13.0545 3.36617C13.1713 3.32317 13.2712 3.25033 13.3415 3.15689C13.4117 3.06344 13.4492 2.95358 13.4492 2.84119C13.4492 2.69048 13.3818 2.54595 13.2619 2.43938C13.142 2.33282 12.9794 2.27295 12.8098 2.27295ZM16.4332 3.40943C16.5596 3.40943 16.6833 3.3761 16.7884 3.31366C16.8936 3.25122 16.9755 3.16248 17.0239 3.05865C17.0723 2.95481 17.085 2.84056 17.0603 2.73033C17.0356 2.6201 16.9747 2.51885 16.8853 2.43938C16.7959 2.35991 16.6819 2.30579 16.5579 2.28387C16.4339 2.26194 16.3053 2.2732 16.1885 2.3162C16.0716 2.35921 15.9718 2.43205 15.9015 2.52549C15.8313 2.61894 15.7938 2.7288 15.7938 2.84119C15.7938 2.9919 15.8611 3.13643 15.981 3.243C16.1009 3.34956 16.2636 3.40943 16.4332 3.40943ZM9.18642 5.49297C9.05995 5.49297 8.93633 5.5263 8.83117 5.58874C8.72602 5.65118 8.64407 5.73993 8.59567 5.84376C8.54727 5.94759 8.53461 6.06185 8.55928 6.17207C8.58396 6.2823 8.64485 6.38355 8.73428 6.46302C8.8237 6.54249 8.93764 6.59661 9.06167 6.61854C9.18571 6.64046 9.31427 6.62921 9.43111 6.5862C9.54795 6.54319 9.64781 6.47036 9.71807 6.37691C9.78834 6.28347 9.82584 6.1736 9.82584 6.06121C9.82584 5.91051 9.75847 5.76597 9.63855 5.65941C9.51864 5.55284 9.356 5.49297 9.18642 5.49297ZM12.8098 5.49297C12.6833 5.49297 12.5597 5.5263 12.4546 5.58874C12.3494 5.65118 12.2674 5.73993 12.219 5.84376C12.1707 5.94759 12.158 6.06185 12.1827 6.17207C12.2073 6.2823 12.2682 6.38355 12.3577 6.46302C12.4471 6.54249 12.561 6.59661 12.685 6.61854C12.8091 6.64046 12.9376 6.62921 13.0545 6.5862C13.1713 6.54319 13.2712 6.47036 13.3415 6.37691C13.4117 6.28347 13.4492 6.1736 13.4492 6.06121C13.4492 5.91051 13.3818 5.76597 13.2619 5.65941C13.142 5.55284 12.9794 5.49297 12.8098 5.49297ZM16.4332 5.49297C16.3067 5.49297 16.1831 5.5263 16.0779 5.58874C15.9728 5.65118 15.8908 5.73993 15.8424 5.84376C15.794 5.94759 15.7814 6.06185 15.806 6.17207C15.8307 6.2823 15.8916 6.38355 15.981 6.46302C16.0705 6.54249 16.1844 6.59661 16.3084 6.61854C16.4325 6.64046 16.561 6.62921 16.6779 6.5862C16.7947 6.54319 16.8946 6.47036 16.9648 6.37691C17.0351 6.28347 17.0726 6.1736 17.0726 6.06121C17.0726 5.91051 17.0052 5.76597 16.8853 5.65941C16.7654 5.55284 16.6028 5.49297 16.4332 5.49297ZM9.18642 8.713C9.05995 8.713 8.93633 8.74633 8.83117 8.80877C8.72602 8.87121 8.64407 8.95995 8.59567 9.06378C8.54727 9.16762 8.53461 9.28187 8.55928 9.3921C8.58396 9.50233 8.64485 9.60358 8.73428 9.68305C8.8237 9.76252 8.93764 9.81664 9.06167 9.83856C9.18571 9.86049 9.31427 9.84923 9.43111 9.80622C9.54795 9.76322 9.64781 9.69038 9.71807 9.59694C9.78834 9.50349 9.82584 9.39363 9.82584 9.28124C9.82584 9.13053 9.75847 8.986 9.63855 8.87943C9.51864 8.77287 9.356 8.713 9.18642 8.713ZM12.8098 8.713C12.6833 8.713 12.5597 8.74633 12.4546 8.80877C12.3494 8.87121 12.2674 8.95995 12.219 9.06378C12.1707 9.16762 12.158 9.28187 12.1827 9.3921C12.2073 9.50233 12.2682 9.60358 12.3577 9.68305C12.4471 9.76252 12.561 9.81664 12.685 9.83856C12.8091 9.86049 12.9376 9.84923 13.0545 9.80622C13.1713 9.76322 13.2712 9.69038 13.3415 9.59694C13.4117 9.50349 13.4492 9.39363 13.4492 9.28124C13.4492 9.13053 13.3818 8.986 13.2619 8.87943C13.142 8.77287 12.9794 8.713 12.8098 8.713ZM16.4332 8.713C16.3067 8.713 16.1831 8.74633 16.0779 8.80877C15.9728 8.87121 15.8908 8.95995 15.8424 9.06378C15.794 9.16762 15.7814 9.28187 15.806 9.3921C15.8307 9.50233 15.8916 9.60358 15.981 9.68305C16.0705 9.76252 16.1844 9.81664 16.3084 9.83856C16.4325 9.86049 16.561 9.84923 16.6779 9.80622C16.7947 9.76322 16.8946 9.69038 16.9648 9.59694C17.0351 9.50349 17.0726 9.39363 17.0726 9.28124C17.0726 9.13053 17.0052 8.986 16.8853 8.87943C16.7654 8.77287 16.6028 8.713 16.4332 8.713Z" fill="#9BA7E9"/>
<path d="M31.9923 2.84119C31.9923 2.95358 31.9548 3.06344 31.8846 3.15689C31.8143 3.25033 31.7145 3.32317 31.5976 3.36617C31.4808 3.40918 31.3522 3.42044 31.2282 3.39851C31.1041 3.37658 30.9902 3.32247 30.9008 3.243C30.8114 3.16353 30.7505 3.06228 30.7258 2.95205C30.7011 2.84182 30.7138 2.72757 30.7622 2.62373C30.8106 2.5199 30.8925 2.43115 30.9977 2.36872C31.1028 2.30628 31.2265 2.27295 31.3529 2.27295C31.5225 2.27295 31.6851 2.33282 31.8051 2.43938C31.925 2.54595 31.9923 2.69048 31.9923 2.84119ZM34.9763 2.27295C34.8498 2.27295 34.7262 2.30628 34.6211 2.36872C34.5159 2.43115 34.4339 2.5199 34.3856 2.62373C34.3372 2.72757 34.3245 2.84182 34.3492 2.95205C34.3738 3.06228 34.4347 3.16353 34.5242 3.243C34.6136 3.32247 34.7275 3.37658 34.8516 3.39851C34.9756 3.42044 35.1042 3.40918 35.221 3.36617C35.3378 3.32317 35.4377 3.25033 35.508 3.15689C35.5782 3.06344 35.6157 2.95358 35.6157 2.84119C35.6157 2.69048 35.5483 2.54595 35.4284 2.43938C35.3085 2.33282 35.1459 2.27295 34.9763 2.27295ZM38.5997 3.40943C38.7261 3.40943 38.8498 3.3761 38.9549 3.31366C39.0601 3.25122 39.142 3.16248 39.1904 3.05865C39.2388 2.95481 39.2515 2.84056 39.2268 2.73033C39.2021 2.6201 39.1412 2.51885 39.0518 2.43938C38.9624 2.35991 38.8485 2.30579 38.7244 2.28387C38.6004 2.26194 38.4718 2.2732 38.355 2.3162C38.2381 2.35921 38.1383 2.43205 38.068 2.52549C37.9978 2.61894 37.9603 2.7288 37.9603 2.84119C37.9603 2.9919 38.0276 3.13643 38.1475 3.243C38.2675 3.34956 38.4301 3.40943 38.5997 3.40943ZM31.3529 5.49297C31.2265 5.49297 31.1028 5.5263 30.9977 5.58874C30.8925 5.65118 30.8106 5.73993 30.7622 5.84376C30.7138 5.94759 30.7011 6.06185 30.7258 6.17207C30.7505 6.2823 30.8114 6.38355 30.9008 6.46302C30.9902 6.54249 31.1041 6.59661 31.2282 6.61854C31.3522 6.64046 31.4808 6.62921 31.5976 6.5862C31.7145 6.54319 31.8143 6.47036 31.8846 6.37691C31.9548 6.28347 31.9923 6.1736 31.9923 6.06121C31.9923 5.91051 31.925 5.76597 31.8051 5.65941C31.6851 5.55284 31.5225 5.49297 31.3529 5.49297ZM34.9763 5.49297C34.8498 5.49297 34.7262 5.5263 34.6211 5.58874C34.5159 5.65118 34.4339 5.73993 34.3856 5.84376C34.3372 5.94759 34.3245 6.06185 34.3492 6.17207C34.3738 6.2823 34.4347 6.38355 34.5242 6.46302C34.6136 6.54249 34.7275 6.59661 34.8516 6.61854C34.9756 6.64046 35.1042 6.62921 35.221 6.5862C35.3378 6.54319 35.4377 6.47036 35.508 6.37691C35.5782 6.28347 35.6157 6.1736 35.6157 6.06121C35.6157 5.91051 35.5483 5.76597 35.4284 5.65941C35.3085 5.55284 35.1459 5.49297 34.9763 5.49297ZM38.5997 5.49297C38.4732 5.49297 38.3496 5.5263 38.2444 5.58874C38.1393 5.65118 38.0573 5.73993 38.0089 5.84376C37.9605 5.94759 37.9479 6.06185 37.9725 6.17207C37.9972 6.2823 38.0581 6.38355 38.1475 6.46302C38.237 6.54249 38.3509 6.59661 38.4749 6.61854C38.599 6.64046 38.7275 6.62921 38.8444 6.5862C38.9612 6.54319 39.0611 6.47036 39.1313 6.37691C39.2016 6.28347 39.2391 6.1736 39.2391 6.06121C39.2391 5.91051 39.1717 5.76597 39.0518 5.65941C38.9319 5.55284 38.7693 5.49297 38.5997 5.49297ZM31.3529 8.713C31.2265 8.713 31.1028 8.74633 30.9977 8.80877C30.8925 8.87121 30.8106 8.95995 30.7622 9.06378C30.7138 9.16762 30.7011 9.28187 30.7258 9.3921C30.7505 9.50233 30.8114 9.60358 30.9008 9.68305C30.9902 9.76252 31.1041 9.81664 31.2282 9.83856C31.3522 9.86049 31.4808 9.84923 31.5976 9.80622C31.7145 9.76322 31.8143 9.69038 31.8846 9.59694C31.9548 9.50349 31.9923 9.39363 31.9923 9.28124C31.9923 9.13053 31.925 8.986 31.8051 8.87943C31.6851 8.77287 31.5225 8.713 31.3529 8.713ZM34.9763 8.713C34.8498 8.713 34.7262 8.74633 34.6211 8.80877C34.5159 8.87121 34.4339 8.95995 34.3856 9.06378C34.3372 9.16762 34.3245 9.28187 34.3492 9.3921C34.3738 9.50233 34.4347 9.60358 34.5242 9.68305C34.6136 9.76252 34.7275 9.81664 34.8516 9.83856C34.9756 9.86049 35.1042 9.84923 35.221 9.80622C35.3378 9.76322 35.4377 9.69038 35.508 9.59694C35.5782 9.50349 35.6157 9.39363 35.6157 9.28124C35.6157 9.13053 35.5483 8.986 35.4284 8.87943C35.3085 8.77287 35.1459 8.713 34.9763 8.713ZM38.5997 8.713C38.4732 8.713 38.3496 8.74633 38.2444 8.80877C38.1393 8.87121 38.0573 8.95995 38.0089 9.06378C37.9605 9.16762 37.9479 9.28187 37.9725 9.3921C37.9972 9.50233 38.0581 9.60358 38.1475 9.68305C38.237 9.76252 38.3509 9.81664 38.4749 9.83856C38.599 9.86049 38.7275 9.84923 38.8444 9.80622C38.9612 9.76322 39.0611 9.69038 39.1313 9.59694C39.2016 9.50349 39.2391 9.39363 39.2391 9.28124C39.2391 9.13053 39.1717 8.986 39.0518 8.87943C38.9319 8.77287 38.7693 8.713 38.5997 8.713Z" fill="#9BA7E9"/>
<path d="M20.9091 2.84119C20.9091 2.95358 20.8716 3.06344 20.8013 3.15689C20.7311 3.25033 20.6312 3.32317 20.5144 3.36617C20.3975 3.40918 20.269 3.42044 20.1449 3.39851C20.0209 3.37658 19.907 3.32247 19.8175 3.243C19.7281 3.16353 19.6672 3.06228 19.6425 2.95205C19.6179 2.84182 19.6305 2.72757 19.6789 2.62373C19.7273 2.5199 19.8093 2.43115 19.9144 2.36872C20.0196 2.30628 20.1432 2.27295 20.2697 2.27295C20.4393 2.27295 20.6019 2.33282 20.7218 2.43938C20.8417 2.54595 20.9091 2.69048 20.9091 2.84119ZM23.893 2.27295C23.7666 2.27295 23.643 2.30628 23.5378 2.36872C23.4327 2.43115 23.3507 2.5199 23.3023 2.62373C23.2539 2.72757 23.2412 2.84182 23.2659 2.95205C23.2906 3.06228 23.3515 3.16353 23.4409 3.243C23.5303 3.32247 23.6443 3.37658 23.7683 3.39851C23.8923 3.42044 24.0209 3.40918 24.1377 3.36617C24.2546 3.32317 24.3544 3.25033 24.4247 3.15689C24.495 3.06344 24.5325 2.95358 24.5325 2.84119C24.5325 2.69048 24.4651 2.54595 24.3452 2.43938C24.2253 2.33282 24.0626 2.27295 23.893 2.27295ZM27.5164 3.40943C27.6429 3.40943 27.7665 3.3761 27.8717 3.31366C27.9768 3.25122 28.0588 3.16248 28.1072 3.05865C28.1556 2.95481 28.1682 2.84056 28.1436 2.73033C28.1189 2.6201 28.058 2.51885 27.9686 2.43938C27.8791 2.35991 27.7652 2.30579 27.6412 2.28387C27.5171 2.26194 27.3886 2.2732 27.2717 2.3162C27.1549 2.35921 27.055 2.43205 26.9848 2.52549C26.9145 2.61894 26.877 2.7288 26.877 2.84119C26.877 2.9919 26.9444 3.13643 27.0643 3.243C27.1842 3.34956 27.3468 3.40943 27.5164 3.40943ZM20.2697 5.49297C20.1432 5.49297 20.0196 5.5263 19.9144 5.58874C19.8093 5.65118 19.7273 5.73993 19.6789 5.84376C19.6305 5.94759 19.6179 6.06185 19.6425 6.17207C19.6672 6.2823 19.7281 6.38355 19.8175 6.46302C19.907 6.54249 20.0209 6.59661 20.1449 6.61854C20.269 6.64046 20.3975 6.62921 20.5144 6.5862C20.6312 6.54319 20.7311 6.47036 20.8013 6.37691C20.8716 6.28347 20.9091 6.1736 20.9091 6.06121C20.9091 5.91051 20.8417 5.76597 20.7218 5.65941C20.6019 5.55284 20.4393 5.49297 20.2697 5.49297ZM23.893 5.49297C23.7666 5.49297 23.643 5.5263 23.5378 5.58874C23.4327 5.65118 23.3507 5.73993 23.3023 5.84376C23.2539 5.94759 23.2412 6.06185 23.2659 6.17207C23.2906 6.2823 23.3515 6.38355 23.4409 6.46302C23.5303 6.54249 23.6443 6.59661 23.7683 6.61854C23.8923 6.64046 24.0209 6.62921 24.1377 6.5862C24.2546 6.54319 24.3544 6.47036 24.4247 6.37691C24.495 6.28347 24.5325 6.1736 24.5325 6.06121C24.5325 5.91051 24.4651 5.76597 24.3452 5.65941C24.2253 5.55284 24.0626 5.49297 23.893 5.49297ZM27.5164 5.49297C27.39 5.49297 27.2663 5.5263 27.1612 5.58874C27.056 5.65118 26.9741 5.73993 26.9257 5.84376C26.8773 5.94759 26.8646 6.06185 26.8893 6.17207C26.914 6.2823 26.9749 6.38355 27.0643 6.46302C27.1537 6.54249 27.2676 6.59661 27.3917 6.61854C27.5157 6.64046 27.6443 6.62921 27.7611 6.5862C27.878 6.54319 27.9778 6.47036 28.0481 6.37691C28.1183 6.28347 28.1558 6.1736 28.1558 6.06121C28.1558 5.91051 28.0885 5.76597 27.9686 5.65941C27.8486 5.55284 27.686 5.49297 27.5164 5.49297ZM20.2697 8.713C20.1432 8.713 20.0196 8.74633 19.9144 8.80877C19.8093 8.87121 19.7273 8.95995 19.6789 9.06378C19.6305 9.16762 19.6179 9.28187 19.6425 9.3921C19.6672 9.50233 19.7281 9.60358 19.8175 9.68305C19.907 9.76252 20.0209 9.81664 20.1449 9.83856C20.269 9.86049 20.3975 9.84923 20.5144 9.80622C20.6312 9.76322 20.7311 9.69038 20.8013 9.59694C20.8716 9.50349 20.9091 9.39363 20.9091 9.28124C20.9091 9.13053 20.8417 8.986 20.7218 8.87943C20.6019 8.77287 20.4393 8.713 20.2697 8.713ZM23.893 8.713C23.7666 8.713 23.643 8.74633 23.5378 8.80877C23.4327 8.87121 23.3507 8.95995 23.3023 9.06378C23.2539 9.16762 23.2412 9.28187 23.2659 9.3921C23.2906 9.50233 23.3515 9.60358 23.4409 9.68305C23.5303 9.76252 23.6443 9.81664 23.7683 9.83856C23.8923 9.86049 24.0209 9.84923 24.1377 9.80622C24.2546 9.76322 24.3544 9.69038 24.4247 9.59694C24.495 9.50349 24.5325 9.39363 24.5325 9.28124C24.5325 9.13053 24.4651 8.986 24.3452 8.87943C24.2253 8.77287 24.0626 8.713 23.893 8.713ZM27.5164 8.713C27.39 8.713 27.2663 8.74633 27.1612 8.80877C27.056 8.87121 26.9741 8.95995 26.9257 9.06378C26.8773 9.16762 26.8646 9.28187 26.8893 9.3921C26.914 9.50233 26.9749 9.60358 27.0643 9.68305C27.1537 9.76252 27.2676 9.81664 27.3917 9.83856C27.5157 9.86049 27.6443 9.84923 27.7611 9.80622C27.878 9.76322 27.9778 9.69038 28.0481 9.59694C28.1183 9.50349 28.1558 9.39363 28.1558 9.28124C28.1558 9.13053 28.0885 8.986 27.9686 8.87943C27.8486 8.77287 27.686 8.713 27.5164 8.713Z" fill="#9BA7E9"/>
<g filter="url(#filter3_d_2_101)">
<path d="M49.56 32.68L51.54 35.44L49.32 39H35.52L42.14 28.4H55.94C55.86 28.4933 55.74 28.6467 55.58 28.86C55.4333 29.06 55.2667 29.2867 55.08 29.54C54.8933 29.7933 54.7 30.0533 54.5 30.32C54.3 30.5733 54.1133 30.8 53.94 31H44.2L40.84 36.38H47.26L49.56 32.68ZM53.1637 39L59.7837 28.4H63.4637L58.4837 36.38H67.0838C66.8837 36.54 66.5504 36.7667 66.0838 37.06C65.6304 37.3533 65.1571 37.6467 64.6637 37.94C64.1704 38.22 63.7237 38.4667 63.3238 38.68C62.9371 38.8933 62.7037 39 62.6237 39H53.1637ZM68.9716 39L75.5916 28.4H79.3116L72.6916 39H68.9716ZM78.9372 40.8L85.5372 31H81.5372L83.1572 28.4H96.2772L94.6972 31H89.2572L85.7772 36.5H89.7572L88.8972 37C88.4972 37.2 88.0239 37.4333 87.4772 37.7C86.9305 37.9667 86.3639 38.24 85.7772 38.52C85.1905 38.8 84.6105 39.0733 84.0372 39.34C83.4772 39.62 82.9705 39.8667 82.5172 40.08C82.0639 40.2933 81.6972 40.4667 81.4172 40.6C81.1372 40.7333 80.9905 40.8 80.9772 40.8H78.9372ZM93.4778 39L100.098 28.4H113.298L111.678 31H102.158L98.7978 36.38H108.318L106.678 39H93.4778ZM110.516 39L117.136 28.4H120.796L118.316 32.36H124.416L126.896 28.4H130.576L123.956 39H120.276L122.796 34.98H116.696L114.176 39H110.516ZM134.389 28.4H147.509L145.889 31H136.469L135.609 32.36H144.969L143.349 34.98H133.989L133.109 36.38H142.509L140.869 39H127.769L134.389 28.4ZM151.33 28.4H162.25C162.303 28.4 162.397 28.5067 162.53 28.72C162.663 28.9333 162.797 29.1867 162.93 29.48C163.063 29.76 163.177 30.0467 163.27 30.34C163.377 30.6333 163.43 30.86 163.43 31.02H153.37L152.53 32.38H162.73L158.59 39H147.67C147.603 39 147.503 38.8933 147.37 38.68C147.237 38.4667 147.103 38.22 146.97 37.94C146.837 37.6467 146.723 37.3533 146.63 37.06C146.537 36.7667 146.49 36.54 146.49 36.38H156.55L157.43 34.98H147.23L151.33 28.4Z" fill="#C0C7F1"/>
</g>
<path d="M69.7266 9V2.45703H73.3633V3.18359H70.4531V5.36719H72.6328V6.09375H70.4531V9H69.7266ZM74.8203 9V8.27344H77V9H74.8203ZM74.0938 8.27344V5.36719H74.8203V8.27344H74.0938ZM77 8.27344V5.36719H77.7305V8.27344H77ZM74.8203 5.36719V4.63672H77V5.36719H74.8203ZM81.3672 9V5.36719H82.0977V9H81.3672ZM78.4609 9V4.63672H79.1875V5.36719H79.9141V6.09375H79.1875V9H78.4609ZM79.9141 5.36719V4.63672H81.3672V5.36719H79.9141ZM83.5547 9V8.27344H84.2812V9H83.5547ZM82.8281 8.27344V3.18359H83.5547V4.63672H84.2812V5.36719H83.5547V8.27344H82.8281ZM87.9141 9V8.27344H90.8242V9H87.9141ZM90.8242 8.27344V7.54688H91.5508V8.27344H90.8242ZM87.1875 8.27344V3.18359H87.9141V8.27344H87.1875ZM90.8242 3.91016V3.18359H91.5508V3.91016H90.8242ZM87.9141 3.18359V2.45703H90.8242V3.18359H87.9141ZM95.1875 9V5.36719H95.918V9H95.1875ZM93.7344 5.36719V4.63672H95.1875V5.36719H93.7344ZM92.2812 9V2.45703H93.0078V5.36719H93.7344V6.09375H93.0078V9H92.2812ZM96.6484 8.27344V6.82031H97.375V8.27344H96.6484ZM97.375 9V8.27344H99.5547V6.82031H97.375V6.09375H99.5547V5.36719H100.285V9H97.375ZM97.375 5.36719V4.63672H99.5547V5.36719H97.375ZM103.922 9V5.36719H104.652V9H103.922ZM101.016 9V4.63672H101.742V5.36719H102.469V6.09375H101.742V9H101.016ZM102.469 5.36719V4.63672H103.922V5.36719H102.469ZM105.383 10.4531V9.72656H108.289V10.4531H105.383ZM105.383 8.27344V5.36719H106.109V8.27344H105.383ZM108.289 9.72656V9H106.109V8.27344H108.289V5.36719H106.109V4.63672H109.02V9.72656H108.289ZM110.477 9V8.27344H112.656V9H110.477ZM112.656 8.27344V7.54688H113.387V8.27344H112.656ZM109.75 8.27344V5.36719H110.477V6.09375H112.656V5.36719H113.387V6.82031H110.477V8.27344H109.75ZM110.477 5.36719V4.63672H112.656V5.36719H110.477ZM114.117 8.27344V5.36719H114.844V8.27344H114.117ZM114.844 9V8.27344H117.023V5.36719H114.844V4.63672H117.023V2.45703H117.754V9H114.844ZM120.664 9V8.27344H121.391V9H120.664ZM120.664 7.54688V2.45703H121.391V7.54688H120.664Z" fill="#C0C7F1"/>
<path d="M156.559 8.966L154.025 6.089H156.223L156.531 6.446L156.755 6.089H158.358L156.559 8.966ZM152.919 8H150.224L151.421 6.089H153.024L152.394 7.097H154.473L152.919 8ZM153.437 5.424L153.311 5.627H151.708L151.862 5.382H155.607L155.817 5.627H153.612L153.437 5.424ZM153.976 6.033L153.703 5.732H155.908L156.174 6.033H153.976ZM151.96 5.221L152.079 5.032H155.299L155.467 5.221H151.96ZM156.79 6.033L156.972 5.732H158.575L158.393 6.033H156.79ZM151.456 6.033L151.638 5.732H153.241L153.059 6.033H151.456ZM157.042 5.627L157.196 5.382H158.799L158.645 5.627H157.042ZM152.212 4.815L152.296 4.682H154.991L155.11 4.815H152.212ZM157.294 5.221L157.413 5.032H159.016L158.897 5.221H157.294ZM157.546 4.815L157.63 4.682H159.233L159.149 4.815H157.546ZM152.471 4.409L152.52 4.325H154.683L154.76 4.409H152.471ZM157.805 4.409L157.854 4.325H159.457L159.408 4.409H157.805ZM160.4 6.117L159.798 7.083H161.933L162.556 6.089H164.159L162.962 8H157.607L158.181 7.083L160.4 6.117ZM162.591 6.033L162.773 5.732H164.376L164.194 6.033H162.591ZM162.843 5.627L162.997 5.382H164.6L164.446 5.627H162.843ZM163.095 5.221L163.214 5.032H164.817L164.698 5.221H163.095ZM163.347 4.815L163.431 4.682H165.034L164.95 4.815H163.347ZM163.606 4.409L163.655 4.325H165.258L165.209 4.409H163.606Z" fill="#C0C7F1"/>
<defs>
<filter id="filter0_di_2_101" x="0" y="0" width="194" height="62" filterUnits="userSpaceOnUse" color-interpolation-filters="sRGB">
<feFlood flood-opacity="0" result="BackgroundImageFix"/>
<feColorMatrix in="SourceAlpha" type="matrix" values="0 0 0 0 0 0 0 0 0 0 0 0 0 0 0 0 0 0 127 0" result="hardAlpha"/>
<feOffset dy="4"/>
<feGaussianBlur stdDeviation="2"/>
<feComposite in2="hardAlpha" operator="out"/>
<feColorMatrix type="matrix" values="0 0 0 0 0 0 0 0 0 0 0 0 0 0 0 0 0 0 0.25 0"/>
<feBlend mode="normal" in2="BackgroundImageFix" result="effect1_dropShadow_2_101"/>
<feBlend mode="normal" in="SourceGraphic" in2="effect1_dropShadow_2_101" result="shape"/>
<feColorMatrix in="SourceAlpha" type="matrix" values="0 0 0 0 0 0 0 0 0 0 0 0 0 0 0 0 0 0 127 0" result="hardAlpha"/>
<feOffset dx="-1" dy="18"/>
<feGaussianBlur stdDeviation="2"/>
<feComposite in2="hardAlpha" operator="arithmetic" k2="-1" k3="1"/>
<feColorMatrix type="matrix" values="0 0 0 0 0 0 0 0 0 0 0 0 0 0 0 0 0 0 0.25 0"/>
<feBlend mode="normal" in2="shape" result="effect2_innerShadow_2_101"/>
</filter>
<filter id="filter1_i_2_101" x="5.58301" y="0" width="184.417" height="12.1226" filterUnits="userSpaceOnUse" color-interpolation-filters="sRGB">
<feFlood flood-opacity="0" result="BackgroundImageFix"/>
<feBlend mode="normal" in="SourceGraphic" in2="BackgroundImageFix" result="shape"/>
<feColorMatrix in="SourceAlpha" type="matrix" values="0 0 0 0 0 0 0 0 0 0 0 0 0 0 0 0 0 0 127 0" result="hardAlpha"/>
<feOffset dx="370" dy="4"/>
<feGaussianBlur stdDeviation="2"/>
<feComposite in2="hardAlpha" operator="arithmetic" k2="-1" k3="1"/>
<feColorMatrix type="matrix" values="0 0 0 0 0 0 0 0 0 0 0 0 0 0 0 0 0 0 0.25 0"/>
<feBlend mode="normal" in2="shape" result="effect1_innerShadow_2_101"/>
</filter>
<filter id="filter2_i_2_101" x="161.563" y="2.2041" width="26.0627" height="12.8164" filterUnits="userSpaceOnUse" color-interpolation-filters="sRGB">
<feFlood flood-opacity="0" result="BackgroundImageFix"/>
<feBlend mode="normal" in="SourceGraphic" in2="BackgroundImageFix" result="shape"/>
<feColorMatrix in="SourceAlpha" type="matrix" values="0 0 0 0 0 0 0 0 0 0 0 0 0 0 0 0 0 0 127 0" result="hardAlpha"/>
<feOffset dx="-6" dy="4"/>
<feGaussianBlur stdDeviation="2"/>
<feComposite in2="hardAlpha" operator="arithmetic" k2="-1" k3="1"/>
<feColorMatrix type="matrix" values="0 0 0 0 0 0 0 0 0 0 0 0 0 0 0 0 0 0 0.25 0"/>
<feBlend mode="normal" in2="shape" result="effect1_innerShadow_2_101"/>
</filter>
<filter id="filter3_d_2_101" x="35.52" y="28.3999" width="131.91" height="12.4001" filterUnits="userSpaceOnUse" color-interpolation-filters="sRGB">
<feFlood flood-opacity="0" result="BackgroundImageFix"/>
<feColorMatrix in="SourceAlpha" type="matrix" values="0 0 0 0 0 0 0 0 0 0 0 0 0 0 0 0 0 0 127 0" result="hardAlpha"/>
<feOffset dx="4"/>
<feComposite in2="hardAlpha" operator="out"/>
<feColorMatrix type="matrix" values="0 0 0 0 0 0 0 0 0 0 0 0 0 0 0 0 0 0 0.51 0"/>
<feBlend mode="normal" in2="BackgroundImageFix" result="effect1_dropShadow_2_101"/>
<feBlend mode="normal" in="SourceGraphic" in2="effect1_dropShadow_2_101" result="shape"/>
</filter>
<linearGradient id="paint0_linear_2_101" x1="97.7915" y1="0" x2="97.7915" y2="12.1224" gradientUnits="userSpaceOnUse">
<stop offset="0.06"/>
<stop offset="0.195" stop-color="#363434"/>
<stop offset="0.51" stop-color="#252525"/>
</linearGradient>
<clipPath id="clip0_2_101">
<path d="M174.428 3.30615H182.214V9.51951C182.214 10.0718 181.766 10.5195 181.214 10.5195H175.428C174.876 10.5195 174.428 10.0718 174.428 9.51951V3.30615Z" fill="white"/>
</clipPath>
</defs>
</svg>
